<svg width="118" height="34" viewBox="0 0 118 34" fill="none" xmlns="http://www.w3.org/2000/svg">
<path d="M15.12 18.3601H9.84V24.84C9.84 25.3734 9.86667 25.8667 9.92 26.3201C9.97333 26.7467 10.0933 27.1201 10.28 27.4401C10.4667 27.76 10.7467 28.0134 11.12 28.2001C11.52 28.3601 12.04 28.4401 12.68 28.4401C13 28.4401 13.4133 28.4134 13.92 28.3601C14.4533 28.2801 14.8533 28.1201 15.12 27.8801V32.8801C14.4533 33.1201 13.76 33.2801 13.04 33.3601C12.32 33.4401 11.6133 33.4801 10.92 33.4801C9.90667 33.4801 8.97333 33.3734 8.12 33.1601C7.26667 32.9467 6.52 32.6134 5.88 32.1601C5.24 31.6801 4.73333 31.0667 4.36 30.3201C4.01333 29.5734 3.84 28.6667 3.84 27.6V18.3601H0V13.5601H3.84V7.80005H9.84V13.5601H15.12V18.3601Z" fill="black"/>
<path d="M18.6691 13.5601H24.6691V16.68H24.7491C25.3891 15.4801 26.1491 14.5867 27.0291 14.0001C27.9091 13.3867 29.0157 13.08 30.3491 13.08C30.6957 13.08 31.0424 13.0934 31.3891 13.1201C31.7357 13.1467 32.0557 13.2 32.3491 13.28V18.7601C31.9224 18.6267 31.4957 18.5334 31.0691 18.4801C30.6691 18.4001 30.2424 18.3601 29.7891 18.3601C28.6424 18.3601 27.7357 18.5201 27.0691 18.8401C26.4024 19.1601 25.8824 19.6134 25.5091 20.2001C25.1624 20.76 24.9357 21.4401 24.8291 22.2401C24.7224 23.0401 24.6691 23.9201 24.6691 24.8801V33.0001H18.6691V13.5601Z" fill="black"/>
<path d="M47.6581 30.5601H47.5781C46.9115 31.6001 46.0181 32.3467 44.8981 32.8001C43.8048 33.2534 42.6448 33.4801 41.4181 33.4801C40.5115 33.4801 39.6315 33.3467 38.7781 33.0801C37.9515 32.8401 37.2181 32.4667 36.5781 31.9601C35.9381 31.4534 35.4315 30.8267 35.0581 30.0801C34.6848 29.3334 34.4981 28.4667 34.4981 27.4801C34.4981 26.3601 34.6981 25.4134 35.0981 24.6401C35.5248 23.8667 36.0848 23.2267 36.7781 22.7201C37.4981 22.2134 38.3115 21.8267 39.2181 21.5601C40.1248 21.2667 41.0581 21.0534 42.0181 20.9201C43.0048 20.7867 43.9781 20.7067 44.9381 20.68C45.9248 20.6534 46.8315 20.6401 47.6581 20.6401C47.6581 19.5734 47.2715 18.7334 46.4981 18.1201C45.7515 17.4801 44.8581 17.16 43.8181 17.16C42.8315 17.16 41.9248 17.3734 41.0981 17.8C40.2981 18.2001 39.5781 18.7601 38.9381 19.4801L35.7381 16.2001C36.8581 15.1601 38.1648 14.3867 39.6581 13.8801C41.1515 13.3467 42.6981 13.08 44.2981 13.08C46.0581 13.08 47.4981 13.3067 48.6181 13.76C49.7648 14.1867 50.6715 14.8267 51.3381 15.68C52.0315 16.5334 52.5115 17.5867 52.7781 18.8401C53.0448 20.0667 53.1781 21.4934 53.1781 23.1201V33.0001H47.6581V30.5601ZM46.1781 24.4801C45.7248 24.4801 45.1515 24.5067 44.4581 24.5601C43.7915 24.5867 43.1381 24.6934 42.4981 24.8801C41.8848 25.0667 41.3515 25.3467 40.8981 25.7201C40.4715 26.0934 40.2581 26.6134 40.2581 27.2801C40.2581 28 40.5648 28.5334 41.1781 28.8801C41.7915 29.2267 42.4315 29.4001 43.0981 29.4001C43.6848 29.4001 44.2448 29.3201 44.7781 29.1601C45.3381 29.0001 45.8315 28.7734 46.2581 28.4801C46.6848 28.1867 47.0181 27.8134 47.2581 27.3601C47.5248 26.9067 47.6581 26.3734 47.6581 25.76V24.4801H46.1781Z" fill="black"/>
<path d="M55.4025 13.5601H61.8825L66.8025 26.7601H66.8825L71.4425 13.5601H77.4825L69.8025 33.0001H63.4425L55.4025 13.5601Z" fill="black"/>
<path d="M98.5691 29.6401C97.6091 30.8667 96.3957 31.8134 94.9291 32.4801C93.4624 33.1467 91.9424 33.4801 90.3691 33.4801C88.8757 33.4801 87.4624 33.2401 86.1291 32.7601C84.8224 32.2801 83.6757 31.6001 82.6891 30.7201C81.7291 29.8134 80.9691 28.7334 80.4091 27.4801C79.8491 26.2267 79.5691 24.8267 79.5691 23.2801C79.5691 21.7334 79.8491 20.3334 80.4091 19.0801C80.9691 17.8267 81.7291 16.76 82.6891 15.88C83.6757 14.9734 84.8224 14.2801 86.1291 13.8001C87.4624 13.3201 88.8757 13.08 90.3691 13.08C91.7557 13.08 93.0091 13.3201 94.1291 13.8001C95.2757 14.2801 96.2357 14.9734 97.0091 15.88C97.8091 16.76 98.4224 17.8267 98.8491 19.0801C99.2757 20.3334 99.4891 21.7334 99.4891 23.2801V25.1601H85.5691C85.8091 26.3067 86.3291 27.2267 87.1291 27.9201C87.9291 28.5867 88.9157 28.9201 90.0891 28.9201C91.0757 28.9201 91.9024 28.7067 92.5691 28.2801C93.2624 27.8267 93.8624 27.2534 94.3691 26.5601L98.5691 29.6401ZM93.4891 21.0801C93.5157 20.0667 93.1824 19.2001 92.4891 18.4801C91.7957 17.7601 90.9024 17.4001 89.8091 17.4001C89.1424 17.4001 88.5557 17.5067 88.0491 17.72C87.5424 17.9334 87.1024 18.2134 86.7291 18.5601C86.3824 18.8801 86.1024 19.2667 85.8891 19.7201C85.7024 20.1467 85.5957 20.6 85.5691 21.0801H93.4891Z" fill="black"/>
<path d="M103.638 13.5601H109.638V16.68H109.718C110.358 15.4801 111.118 14.5867 111.998 14.0001C112.878 13.3867 113.984 13.08 115.318 13.08C115.664 13.08 116.011 13.0934 116.358 13.1201C116.704 13.1467 117.024 13.2 117.318 13.28V18.7601C116.891 18.6267 116.464 18.5334 116.038 18.4801C115.638 18.4001 115.211 18.3601 114.758 18.3601C113.611 18.3601 112.704 18.5201 112.038 18.8401C111.371 19.1601 110.851 19.6134 110.478 20.2001C110.131 20.76 109.904 21.4401 109.798 22.2401C109.691 23.0401 109.638 23.9201 109.638 24.8801V33.0001H103.638V13.5601Z" fill="black"/>
<circle cx="66.7832" cy="6.5" r="6.5" fill="#FCD240"/>
</svg>
